PathFileType	4	(X/Y/Z)	./resultDataOpenSim/trcMotMarkerGrf/sub06/qtm-01-05.trc
DataRate	CameraRate	NumFrames	NumMarkers	Units	OrigDataRate	OrigDataStartFrame	OrigNumFrames
250.000000	250.000000	12	24	m	250.000000	1	503
Frame#	Time	L.Toe.Tip			R.Toe.Tip			L.Ankle.Lat			R.Ankle.Lat			L.Ankle.Med			R.Ankle.Med			L.Heel			R.Heel			L.Knee.Lat			R.Knee.Lat			L.Knee.Med			R.Knee.Med			L.Thigh.Upper			R.Thigh.Upper			L.ASIS			R.ASIS			V.Sacral			L.Acromium			R.Acromium			C7			L.Elbow			R.Elbow			L.Wrist.Lat			R.Wrist.Lat
		X1	Y1	Z1	X2	Y2	Z2	X3	Y3	Z3	X4	Y4	Z4	X5	Y5	Z5	X6	Y6	Z6	X7	Y7	Z7	X8	Y8	Z8	X9	Y9	Z9	X10	Y10	Z10	X11	Y11	Z11	X12	Y12	Z12	X13	Y13	Z13	X14	Y14	Z14	X15	Y15	Z15	X16	Y16	Z16	X17	Y17	Z17	X18	Y18	Z18	X19	Y19	Z19	X20	Y20	Z20	X21	Y21	Z21	X22	Y22	Z22	X23	Y23	Z23	X24	Y24	Z24

1	0	-1.5491641	0.033131329	-0.078952942	-1.1147332	0.072244029	0.10794925	-1.6720183	0.068280963	-0.09761903	-1.2452176	0.078029714	0.11982588	-1.664379	0.085193428	-0.014474574	-1.2275622	0.10301563	0.035528317	NaN	NaN	NaN	-1.2912655	0.045038906	0.048424001	-1.5550813	0.42282958	-0.12325749	-1.267173	0.4675948	0.13078058	-1.5652708	0.42556906	-0.0020524877	-1.285677	0.44485431	0.0032347364	-1.4786219	0.80357987	-0.19179656	-1.4463284	0.79495943	0.1582177	-1.3947527	0.84278798	-0.15362773	-1.3693346	0.8450889	0.090687745	-1.5584097	0.92660807	-0.0020577193	-1.4117226	1.3324763	-0.20549377	-1.4204321	1.3136055	0.15627006	-1.4904906	1.3644215	-0.02549207	-1.4180538	1.0092738	-0.27960097	-1.5495831	1.0221275	0.21135381	-1.201646	0.8826445	-0.25945086	-1.4279922	0.81100814	0.24045858
2	0.004	-1.5490346	0.032992539	-0.078762544	-1.0987257	0.07447	0.10846447	-1.6729857	0.068326933	-0.09646851	-1.2296788	0.077368818	0.12001847	-1.6638794	0.085259223	-0.014197139	-1.2120513	0.10303711	0.03578501	NaN	NaN	NaN	-1.2745354	0.043714496	0.048404019	-1.5523256	0.4219515	-0.12320171	-1.2614659	0.46610459	0.13015195	-1.5623473	0.42467034	-0.0020177188	-1.2793416	0.44334782	0.002470906	-1.4739311	0.80211617	-0.19234111	-1.4436015	0.7930003	0.15714216	-1.3899976	0.84112144	-0.15376381	-1.3636986	0.84349693	0.090542793	-1.5529255	0.92527254	-0.0018695189	-1.4064693	1.3309266	-0.20553679	-1.4152413	1.3118314	0.15640378	-1.4850775	1.3629837	-0.025364078	-1.4108253	1.0076611	-0.27978924	-1.5456173	1.020918	0.21115034	-1.1936193	0.88284334	-0.25853266	-1.4263269	0.80858284	0.2408304
3	0.008	-1.5488396	0.032876704	-0.078657096	-1.0828625	0.076834919	0.10896184	-1.6734691	0.068393619	-0.095694786	-1.2140904	0.076909079	0.12023459	-1.6635113	0.085296838	-0.013889394	-1.1967079	0.10317187	0.036045446	NaN	NaN	NaN	-1.2579326	0.042499597	0.04843539	-1.5494898	0.42104279	-0.12314968	-1.2557909	0.46458971	0.12954385	-1.5592783	0.42378586	-0.0020003475	-1.2730138	0.44181882	0.0016655732	-1.4694072	0.80076218	-0.1924539	-1.4405917	0.7910312	0.15616391	-1.3852339	0.83945585	-0.15401314	-1.3579569	0.84190835	0.090386329	-1.5474576	0.92394719	-0.0015926165	-1.4011913	1.3293724	-0.20556503	-1.4100022	1.3100337	0.15656286	-1.4796604	1.3615588	-0.025219214	-1.4034776	1.0060477	-0.27984731	-1.5417074	1.0197519	0.21102681	-1.1856257	0.88299892	-0.25761681	-1.4246135	0.80616654	0.24120277
4	0.012	-1.5484939	0.032801806	-0.078734269	-1.0672251	0.079434046	0.10938784	-1.6734153	0.068493049	-0.095317319	-1.1984697	0.07676029	0.12047703	-1.663178	0.085311535	-0.013567414	-1.1816714	0.10346228	0.036290144	NaN	NaN	NaN	-1.2415241	0.041469763	0.048501828	-1.5465446	0.42010749	-0.12310024	-1.2501811	0.4630311	0.12895801	-1.556034	0.42290547	-0.0020028838	-1.2666929	0.44026753	0.00082194933	-1.4649708	0.79947925	-0.19218294	-1.4367376	0.78908394	0.155506	-1.3803995	0.83779725	-0.15431159	-1.3521019	0.84031128	0.090213262	-1.5419855	0.9226046	-0.0012152348	-1.3958739	1.3277999	-0.20555962	-1.4046834	1.3081985	0.15674358	-1.4742218	1.3601472	-0.02505644	-1.3960293	1.0044262	-0.27977917	-1.5378663	1.018647	0.21101955	-1.1776703	0.88308559	-0.25669762	-1.4228263	0.80377048	0.24157488
5	0.016	-1.5479592	0.032770238	-0.079033416	-1.0518808	0.082305971	0.10969162	-1.6730733	0.068625434	-0.095119072	-1.1829207	0.076927037	0.12072724	-1.6627411	0.085330718	-0.013271482	-1.1670414	0.10389786	0.036485942	NaN	NaN	NaN	-1.2253607	0.040643781	0.048544891	-1.543504	0.41916805	-0.12304243	-1.2446548	0.46143199	0.12838734	-1.5526294	0.42200576	-0.0020181297	-1.2604041	0.43871606	-2.3673449e-05	-1.4604623	0.79817974	-0.19180371	-1.4314726	0.78726924	0.15535061	-1.3754186	0.83616837	-0.15452432	-1.3462243	0.83868947	0.090027397	-1.5364751	0.92120714	-0.00078472738	-1.3905194	1.3261968	-0.20551618	-1.3993021	1.3063391	0.15693105	-1.4687572	1.3587324	-0.024894167	-1.3886195	1.0027864	-0.27968471	-1.5340697	1.0175948	0.21111549	-1.1697635	0.88309541	-0.25577278	-1.4209553	0.80140294	0.24194876
6	0.02	-1.5473771	0.03276132	-0.079409893	-1.0369004	0.085458057	0.10990752	-1.6726634	0.068784993	-0.094929363	-1.1676013	0.077329239	0.12093367	-1.6622398	0.085385902	-0.013023625	-1.1527861	0.10448575	0.036604611	NaN	NaN	NaN	-1.2094674	0.039996615	0.04852403	-1.5403826	0.41823315	-0.12296602	-1.2391716	0.4598209	0.12783271	-1.5490829	0.42107861	-0.0020277427	-1.2541761	0.43718084	-0.00084641762	-1.4558406	0.79683397	-0.19147799	-1.4245282	0.78572752	0.15571453	-1.370283	0.83457932	-0.15461541	-1.3403805	0.83703579	0.089838323	-1.5309198	0.91974117	-0.00035428715	-1.3851292	1.3245602	-0.20545862	-1.3938943	1.3044838	0.15712534	-1.4632718	1.3572901	-0.024755062	-1.3813357	1.0011252	-0.27962279	-1.5302703	1.0165727	0.21127563	-1.161922	0.88302907	-0.25484931	-1.4189923	0.79906524	0.2423264
7	0.024	-1.5470253	0.032742005	-0.079586875	-1.0223656	0.088874977	0.11013531	-1.6722737	0.068966249	-0.094702618	-1.1526931	0.077853383	0.12102344	-1.6617286	0.085510012	-0.012828949	-1.1387856	0.10526289	0.036624833	NaN	NaN	NaN	-1.1938604	0.039495213	0.048418547	-1.5371872	0.41729858	-0.12287173	-1.2336519	0.45823695	0.12730434	-1.5454636	0.42013825	-0.0020069924	-1.2480097	0.43566651	-0.0016456799	-1.4511464	0.79543953	-0.19122477	-1.4163086	0.7844554	0.15641627	-1.3650779	0.83300765	-0.15465186	-1.3345401	0.8353615	0.089656893	-1.5253501	0.91822103	5.0581578e-05	-1.3797069	1.3229001	-0.20541468	-1.3884758	1.302646	0.15733314	-1.4577651	1.3558126	-0.024629391	-1.3741567	0.99945183	-0.27957086	-1.5264146	1.0155549	0.21145609	-1.1541589	0.88289131	-0.25393183	-1.4169491	0.79675991	0.24270135
8	0.028	-1.5470234	0.03269231	-0.079442097	-1.0083282	0.092522477	0.1104075	-1.6719111	0.069167016	-0.094456537	-1.1382956	0.078434088	0.12095151	-1.6611375	0.085709814	-0.012672855	-1.1249764	0.10624445	0.03652619	NaN	NaN	NaN	-1.1785681	0.039118581	0.048210202	-1.5339186	0.41635958	-0.12276617	-1.2280532	0.4567004	0.12680654	-1.5418377	0.41920427	-0.0019456224	-1.2418845	0.43418161	-0.0024289935	-1.4464094	0.7939743	-0.1909762	-1.4079759	0.78322139	0.15710176	-1.3599021	0.83142475	-0.15471916	-1.3286578	0.83368528	0.089488089	-1.5197896	0.91667371	0.00044578959	-1.37426	1.3212351	-0.20538003	-1.3830382	1.3008192	0.15755303	-1.4522251	1.3543187	-0.024474507	-1.3670268	0.99777962	-0.27948957	-1.5224506	1.0145178	0.21161598	-1.1464695	0.88268853	-0.25301171	-1.4148617	0.79449207	0.2430634
9	0.032	-1.5471917	0.032617871	-0.079139506	-0.99475399	0.096364306	0.11062362	-1.6715551	0.069394014	-0.094212602	-1.1243937	0.079071058	0.12071505	-1.6606039	0.085911469	-0.012455136	-1.1114024	0.10739521	0.036293515	NaN	NaN	NaN	-1.1636203	0.038856946	0.047894499	-1.53058	0.41541588	-0.12265227	-1.2224009	0.45520221	0.12633312	-1.5382047	0.41828652	-0.0018557402	-1.2357786	0.43273848	-0.0031960948	-1.4416376	0.7924149	-0.19066045	-1.4005559	0.78178171	0.15749557	-1.3547797	0.82983099	-0.15485138	-1.3227212	0.83201839	0.089326016	-1.5142383	0.91512028	0.00086192729	-1.3687874	1.3195868	-0.20532096	-1.3775711	1.2990034	0.15778012	-1.4466417	1.3528344	-0.024261304	-1.3599162	0.99612055	-0.27937029	-1.5183286	1.013439	0.21171665	-1.1388366	0.88242703	-0.25207576	-1.4127578	0.79227181	0.24341231
10	0.036	-1.5472951	0.032535049	-0.078898386	-0.98152543	0.1003794	0.11062028	-1.6711859	0.069667064	-0.093980529	-1.1109427	0.079775737	0.12032432	-1.660771	0.085960152	-0.011947388	-1.0981514	0.10865558	0.035930198	NaN	NaN	NaN	-1.1490199	0.03870752	0.047475738	-1.5271816	0.41447434	-0.12252613	-1.2167319	0.45372746	0.12588443	-1.5345191	0.41738094	-0.0017626066	-1.2296705	0.43133816	-0.0039311283	-1.4368325	0.79079194	-0.19027173	-1.3940194	0.78013867	0.15763268	-1.3496586	0.82825262	-0.15501978	-1.3167278	0.83036632	0.089162661	-1.5086888	0.91357028	0.0013111894	-1.3632809	1.3179703	-0.20521094	-1.3720767	1.2972178	0.15801311	-1.4410191	1.3513674	-0.024004883	-1.3528229	0.99448143	-0.27922553	-1.5139979	1.0122931	0.21171865	-1.1312537	0.88211064	-0.25112134	-1.4106301	0.79011028	0.24376274
11	0.04	-1.5472701	0.032454526	-0.078781642	-0.96855736	0.10453694	0.11029237	-1.6707949	0.070009599	-0.09376816	-1.0979336	0.080536799	0.11978462	-1.662246	0.085757743	-0.010967167	-1.0852956	0.1099747	0.035456091	NaN	NaN	NaN	-1.1347522	0.038673146	0.046942192	-1.5237155	0.41354563	-0.12238559	-1.2110444	0.45227714	0.12547567	-1.5307374	0.41648232	-0.0016880998	-1.2235364	0.42997088	-0.0046158221	-1.4319897	0.7891923	-0.1898626	-1.3876628	0.77846572	0.15772426	-1.3444896	0.82670301	-0.15518412	-1.31067	0.82873265	0.088999756	-1.5031401	0.91203282	0.0017942358	-1.3577401	1.3163874	-0.2050508	-1.3665649	1.2954804	0.15825438	-1.4353724	1.3499028	-0.023750894	-1.3457555	0.99286378	-0.27905956	-1.5094067	1.0110475	0.21158139	-1.123736	0.88173769	-0.25015946	-1.4084422	0.78800742	0.2441327
12	0.044	-1.5471732	0.032381929	-0.078740458	-0.95593279	0.10870969	0.10969718	-1.6703812	0.070431963	-0.093585029	-1.0853804	0.081321836	0.11910103	-1.6645468	0.085462118	-0.0097156885	-1.0728787	0.11131358	0.034889561	NaN	NaN	NaN	-1.1208497	0.038754256	0.046261675	-1.520158	0.41263906	-0.12223913	-1.2053211	0.45085903	0.12512133	-1.5268482	0.41559384	-0.001632932	-1.2173497	0.42862955	-0.0052535838	-1.4271021	0.78767753	-0.18950029	-1.3810282	0.77687593	0.15789217	-1.3392637	0.82517376	-0.15532909	-1.3045497	0.82711776	0.088846317	-1.4975977	0.91052056	0.0023162147	-1.3521713	1.3148301	-0.20485873	-1.3610326	1.2937856	0.15850851	-1.4297134	1.3484275	-0.023531444	-1.3387221	0.99126747	-0.27885586	-1.5045052	1.0096648	0.21126954	-1.116304	0.8813023	-0.24920423	-1.4061484	0.78595685	0.24452986
